<?xml version="1.0" encoding="UTF-8"?><svg id="Layer_2" xmlns="http://www.w3.org/2000/svg" viewBox="0 0 512.01 512"><defs><style>.cls-1{fill:#fff;}</style></defs><g id="Layer_1-2"><path class="cls-1" d="M16.01,0H144.01c5.3,0,10.3,2.7,13.3,7.1l81.1,121.6c-49.5,4.1-94,25.6-127.6,58.3L2.71,24.9C-.59,20-.89,13.7,1.91,8.5,4.71,3.3,10.11,0,16.01,0ZM509.31,24.9l-108.1,162.2c-33.5-32.7-78.1-54.2-127.6-58.3L354.71,7.1c3-4.5,8-7.1,13.3-7.1h128c5.9,0,11.3,3.2,14.1,8.5,2.8,5.3,2.5,11.5-.8,16.4h0Zm-77.3,311.1c0,97.2-78.8,176-176,176s-176-78.8-176-176,78.8-176,176-176,176,78.8,176,176Zm-167.6-94.9c-3.4-7-13.3-7-16.8,0l-22.4,45.4c-1.4,2.8-4,4.7-7,5.1l-50.2,7.3c-7.7,1.1-10.7,10.5-5.2,16l36.3,35.4c2.2,2.2,3.2,5.2,2.7,8.3l-8.6,49.9c-1.3,7.6,6.7,13.5,13.6,9.9l44.8-23.6c2.7-1.4,6-1.4,8.7,0l44.8,23.6c6.9,3.6,14.9-2.2,13.6-9.9l-8.6-49.9c-.5-3,.5-6.1,2.7-8.3l36.3-35.4c5.6-5.4,2.5-14.8-5.2-16l-50.1-7.3c-3-.4-5.7-2.4-7-5.1l-22.4-45.4Z"/></g></svg>